<?xml version="1.0" encoding="UTF-8"?>
<svg viewBox="0 0 267 56" fill="none" xmlns="http://www.w3.org/2000/svg">
    <path
        d="M69.997 51.289V36.205h1.99v15.084h-1.99zm13.907-6.632v6.627h-1.931v-6.33c0-2.163-.989-3.098-2.524-3.098-1.535 0-2.523.954-2.523 3.135v6.293h-1.932V40.646h1.931v2.164c.474-1.252 1.5-2.384 3.317-2.384 2.387 0 3.667 1.847 3.667 4.226l-.005.005zm2.574 1.829v-1.628h6.231v1.628h-6.231zm8.108.256h2.073c.277 2.044 1.835 3.076 3.849 3.076 2.642 0 4.081-1.11 4.081-2.682 0-1.645-1.203-2.044-3.608-2.58l-1.872-.417c-2.346-.518-4.045-1.705-4.045-3.97 0-2.401 2.387-4.188 5.407-4.188s5.307 1.668 5.74 4.147h-2.073c-.474-1.727-1.854-2.46-3.667-2.46-1.813 0-3.393.911-3.393 2.3 0 1.389.965 1.907 3.275 2.42l1.872.417c3.015.674 4.377 1.746 4.377 4.107 0 2.7-2.427 4.583-6.094 4.583-3.175 0-5.466-1.806-5.917-4.762l-.005.01zm19.814 3.076v1.466h-1.38c-1.836 0-3.275-.893-3.275-2.92v-6.251h-2.227v-1.467h2.227v-2.52h1.931v2.52h2.683v1.467h-2.683v6.252c0 1.132.574 1.448 1.54 1.448h1.184v.005zm.813-3.851c0-3.295 2.013-5.536 5.147-5.536 3.134 0 5.129 2.24 5.129 5.536 0 3.296-1.99 5.537-5.129 5.537-3.138 0-5.147-2.241-5.147-5.537zm8.304 0c0-2.502-1.143-4.106-3.157-4.106-2.013 0-3.175 1.608-3.175 4.106 0 2.498 1.166 4.107 3.175 4.107s3.157-1.609 3.157-4.107zm6.058-3.038c.474-1.49 1.517-2.503 3.471-2.503v1.925h-.592c-1.932 0-2.879.614-2.879 2.521v6.412h-1.931V40.646h1.931v2.283zm14.271 3.616h-7.99c.159 2.301 1.321 3.534 3.079 3.534 1.54 0 2.346-.715 2.742-1.907h1.973c-.611 2.264-2.328 3.337-4.715 3.337-3.198 0-5.029-2.342-5.029-5.537 0-3.194 1.872-5.537 5.011-5.537 2.961 0 4.97 2.104 4.97 5.381 0 .197-.019.477-.041.734v-.005zm-7.972-1.467h6.036c-.119-1.906-1.262-3.217-2.998-3.217-1.735 0-2.801 1.09-3.038 3.218zm27.204 6.211h-2.328l-3.607-6.151h-3.59v6.15h-1.991V36.206h5.521c3.316 0 5.385 1.746 5.385 4.464 0 2.063-1.203 3.57-3.216 4.166l3.826 6.449v.005zm-9.529-13.297v5.358h3.571c2.031 0 3.275-.953 3.275-2.681 0-1.728-1.244-2.681-3.275-2.681h-3.571v.004zm20.405 8.553h-7.99c.16 2.3 1.321 3.534 3.08 3.534 1.539 0 2.345-.715 2.742-1.907h1.972c-.61 2.264-2.328 3.337-4.714 3.337-3.198 0-5.029-2.342-5.029-5.537s1.872-5.537 5.01-5.537c2.961 0 4.97 2.104 4.97 5.381 0 .197-.018.477-.041.733v-.004zm-7.972-1.467h6.036c-.118-1.906-1.262-3.217-2.997-3.217-1.736 0-2.802 1.09-3.039 3.217zm15.638 4.739v1.467h-1.38c-1.836 0-3.275-.894-3.275-2.92v-6.251h-2.228v-1.467h2.228v-2.52h1.931v2.52h2.683v1.467h-2.683v6.251c0 1.133.574 1.449 1.54 1.449h1.184v.004zm10.363-5.376v6.848h-1.931v-2.182c-.729 1.49-1.599 2.402-3.649 2.402s-3.549-1.449-3.549-3.415c0-2.48 2.465-2.956 4.36-3.158l2.842-.298v-.22c0-1.388-.77-2.562-2.446-2.562-1.48 0-2.309.912-2.446 1.925h-1.972c.236-2.003 1.931-3.355 4.418-3.355 3.216 0 4.378 2.026 4.378 4.01l-.005.005zm-1.931 2.324v-.793l-2.109.22c-1.463.16-3.116.358-3.116 1.907 0 1.37 1.066 2.122 2.287 2.122 1.954 0 2.938-1.55 2.938-3.456zm4.519-7.943V36.2h2.091v2.622h-2.091zm.078 12.467V40.65h1.931v10.638h-1.931zm4.684 0V36.205h1.931v15.084h-1.931zm27.276 0h-1.991V36.264l-4.437 15.025h-4.14l-4.437-15.025V51.29h-1.991V36.205h4.063l4.437 15.024 4.437-15.024h4.063v15.084h-.004zm12.425-4.744h-7.99c.16 2.301 1.321 3.534 3.08 3.534 1.539 0 2.346-.715 2.742-1.907h1.972c-.61 2.264-2.327 3.337-4.714 3.337-3.198 0-5.029-2.342-5.029-5.537 0-3.194 1.872-5.537 5.01-5.537 2.961 0 4.97 2.104 4.97 5.381 0 .197-.018.477-.041.734v-.005zm-7.971-1.467h6.035c-.118-1.906-1.262-3.217-2.997-3.217-1.736 0-2.802 1.09-3.038 3.218zm17.823-8.878h1.931v15.084h-1.931V48.96c-.651 1.527-2.15 2.54-3.726 2.54-2.565 0-4.496-2.265-4.496-5.537 0-3.273 1.954-5.537 4.496-5.537 1.972 0 3.234 1.37 3.726 2.8V36.2zm.078 9.767c0-2.502-1.162-4.106-3.175-4.106-2.014 0-3.157 1.609-3.157 4.107 0 2.497 1.143 4.106 3.157 4.106 2.013 0 3.175-1.609 3.175-4.106zm4.542-7.145V36.2h2.091v2.622h-2.091zm.077 12.467V40.65h1.932v10.638h-1.932zm13.234-6.848v6.848h-1.931v-2.182c-.729 1.49-1.599 2.402-3.649 2.402s-3.549-1.449-3.549-3.415c0-2.48 2.465-2.956 4.36-3.158l2.842-.298v-.22c0-1.388-.77-2.562-2.446-2.562-1.48 0-2.309.912-2.446 1.925h-1.972c.236-2.003 1.931-3.355 4.418-3.355 3.216 0 4.378 2.026 4.378 4.01l-.005.005zm-1.931 2.324v-.793l-2.109.22c-1.458.16-3.116.358-3.116 1.907 0 1.37 1.066 2.122 2.287 2.122 1.954 0 2.938-1.55 2.938-3.456z"
        fill="#425052"></path>
    <path
        d="M84.178 8.407H73.974v5.133h9.056v3.786h-9.056v5.326h10.204v3.818h-14.19V4.59h14.19v3.817zm2.77 18.063v-8.566c0-3.979 2.52-6.834 7.015-6.834 4.496 0 6.983 2.855 6.983 6.834v8.566h-4.017v-8.246c0-2.213-.989-3.593-2.966-3.593-1.977 0-2.965 1.38-2.965 3.593v8.246h-4.05zm28.281-15.08h3.444v13.893c0 5.646-3.794 7.86-7.685 7.86-4.304 0-7.046-2.214-7.62-5.807h3.954c.414 1.412 1.594 2.342 3.666 2.342 1.85 0 3.731-1.09 3.731-4.395v-1.027c-1.02 1.572-2.742 2.47-4.815 2.47-3.443 0-6.855-2.662-6.855-7.828 0-5.165 3.412-7.828 6.855-7.828 2.2 0 3.986.994 4.975 2.727l.35-2.406zm-.478 7.508c0-2.855-1.977-4.331-3.794-4.331-2.232 0-3.954 1.7-3.954 4.331 0 2.631 1.722 4.331 3.954 4.331 1.817 0 3.794-1.475 3.794-4.33zm18.367-7.508h3.444v15.08h-3.572l-.255-2.31c-.861 1.668-2.614 2.663-4.942 2.663-3.476 0-6.951-2.695-6.951-7.893 0-5.197 3.475-7.86 6.951-7.86 2.36 0 4.113.994 4.974 2.695l.351-2.374zm-.446 7.54c0-2.759-1.977-4.299-3.827-4.299-2.264 0-4.017 1.668-4.017 4.3 0 2.63 1.785 4.33 4.017 4.33 1.913 0 3.827-1.411 3.827-4.33zm18.526-7.54h3.444v13.893c0 5.646-3.795 7.86-7.685 7.86-4.304 0-7.047-2.214-7.621-5.807h3.954c.415 1.412 1.595 2.342 3.667 2.342 1.85 0 3.731-1.09 3.731-4.395v-1.027c-1.02 1.572-2.742 2.47-4.815 2.47-3.444 0-6.855-2.662-6.855-7.828 0-5.165 3.411-7.828 6.855-7.828 2.2 0 3.986.994 4.974 2.727l.351-2.406zm-.478 7.508c0-2.855-1.977-4.331-3.795-4.331-2.232 0-3.954 1.7-3.954 4.331 0 2.631 1.722 4.331 3.954 4.331 1.818 0 3.795-1.475 3.795-4.33zm21.234 1.412h-11.319c.478 2.053 1.913 3.144 3.858 3.144 1.754 0 2.742-.481 3.348-1.54h3.731c-.925 3.337-3.954 4.909-6.983 4.909-4.656 0-7.78-3.337-7.78-7.893 0-4.556 3.188-7.86 7.684-7.86s7.525 3.369 7.525 7.86c0 .578 0 .802-.064 1.38zm-11.351-2.823h7.621c-.255-1.765-1.786-3.048-3.731-3.048-1.945 0-3.444 1.219-3.89 3.047z"
        fill="#0D2126"></path>
    <path
        d="M42.537 13.013h-6.231L27.783 42.93h6.231l8.523-29.916zM27.624 42.93L19.1 13.013h-6.23l8.522 29.916h6.232zM46.3.469H9.102C4.278.469.37 4.4.37 9.255v37.432c0 4.85 3.908 8.782 8.732 8.782h37.202c4.824 0 8.732-3.933 8.732-8.787V9.255c0-4.854-3.908-8.786-8.732-8.786H46.3zm4.573 50.82H4.53V4.653h46.349V51.29h-.005z"
        fill="#FC4672"></path>
</svg>