<?xml version="1.0" encoding="UTF-8"?>
<svg xmlns="http://www.w3.org/2000/svg" viewBox="0 0 233 56" fill="none">
    <g>
        <path
            d="M70.282 26.47V4.59h5.668l5.316 13.121c.48 1.187.928 2.342 1.216 3.369h.065c.288-1.027.736-2.182 1.216-3.369L89.08 4.59h5.668v21.886h-4.13V11.811c0-.48 0-.866.063-1.443h-.064c-.128.513-.288.962-.512 1.508l-5.892 14.34h-3.395l-5.892-14.34a17.345 17.345 0 01-.544-1.508h-.064c.064.577.064.962.064 1.443v14.662h-4.099v-.004zm42.3-6.16h-11.367c.48 2.053 1.921 3.144 3.874 3.144 1.762 0 2.754-.481 3.363-1.54h3.746c-.928 3.337-3.971 4.909-7.013 4.909-4.675 0-7.813-3.337-7.813-7.893 0-4.556 3.202-7.86 7.717-7.86s7.557 3.369 7.557 7.86c0 .578 0 .802-.064 1.38zm-11.399-2.823h7.653c-.256-1.765-1.793-3.048-3.747-3.048-1.953 0-3.458 1.219-3.906 3.047zm13.579 8.983v-8.566c0-4.171 2.305-6.834 6.596-6.834 2.978 0 4.515 1.796 5.028 2.727h.064c.512-.93 2.081-2.727 5.059-2.727 4.291 0 6.597 2.663 6.597 6.834v8.566h-4.067v-8.246c0-2.213-.897-3.593-2.786-3.593s-2.786 1.38-2.786 3.593v8.246H124.4v-8.246c0-2.213-.896-3.593-2.786-3.593-1.889 0-2.786 1.38-2.786 3.593v8.246h-4.066zm25.454-7.54c0-4.46 3.362-7.86 8.037-7.86 4.675 0 8.038 3.4 8.038 7.86 0 4.46-3.363 7.893-8.038 7.893-4.675 0-8.037-3.433-8.037-7.893zm12.072 0c0-2.534-1.697-4.331-4.035-4.331-2.337 0-4.034 1.797-4.034 4.331 0 2.535 1.697 4.332 4.034 4.332 2.338 0 4.035-1.765 4.035-4.332zm6.116 7.54v-8.887c0-3.626 2.114-6.513 6.341-6.513a8.1 8.1 0 012.017.224v3.658c-.48-.032-.897-.032-1.089-.032-2.241 0-3.202 1.027-3.202 3.112v8.438h-4.067zm20.303-15.08h4.419l-8.229 21.432h-4.515l2.753-6.32-5.86-15.111h4.515l2.85 8.63c.289.834.449 1.604.577 2.535h.064c.128-.93.32-1.7.576-2.535l2.85-8.63z"
            fill="#0D2126"></path>
        <path
            d="M81.856 51.289h-2.338l-3.623-6.151H72.29v6.15h-1.999V36.206h5.544c3.33 0 5.408 1.746 5.408 4.464 0 2.063-1.208 3.57-3.23 4.166l3.843 6.449v.005zm-9.57-13.297v5.358h3.586c2.04 0 3.29-.953 3.29-2.681 0-1.728-1.25-2.681-3.29-2.681h-3.587v.004zm20.104 8.553h-8.024c.16 2.301 1.326 3.534 3.088 3.534 1.546 0 2.356-.715 2.754-1.907h1.98c-.613 2.264-2.337 3.337-4.734 3.337-3.207 0-5.05-2.342-5.05-5.537 0-3.194 1.88-5.537 5.031-5.537 2.974 0 4.991 2.104 4.991 5.381 0 .197-.018.477-.041.734l.005-.005zm-8.001-1.467h6.06c-.118-1.906-1.266-3.217-3.01-3.217-1.742 0-2.813 1.09-3.05 3.218zm15.508 4.739v1.467H98.51c-1.843 0-3.289-.894-3.289-2.92v-6.251h-2.237v-1.467h2.237v-2.52h1.94v2.52h2.694v1.467h-2.694v6.251c0 1.133.576 1.449 1.546 1.449h1.19v.004zm10.413-5.376v6.848h-1.94v-2.182c-.732 1.49-1.605 2.402-3.664 2.402-2.058 0-3.563-1.449-3.563-3.415 0-2.48 2.474-2.956 4.377-3.158l2.855-.298v-.22c0-1.388-.773-2.562-2.457-2.562-1.486 0-2.319.912-2.456 1.925h-1.981c.238-2.003 1.94-3.355 4.437-3.355 3.23 0 4.397 2.026 4.397 4.01l-.005.005zm-1.94 2.324v-.793l-2.118.22c-1.464.16-3.129.358-3.129 1.907 0 1.37 1.071 2.122 2.297 2.122 1.962 0 2.95-1.55 2.95-3.456zm4.535-7.943V36.2h2.1v2.622h-2.1zm.078 12.467V40.65h1.94v10.638h-1.94zm4.701 0V36.205h1.939v15.084h-1.939zm10.32 0V36.205h1.999v15.084h-1.999zm13.765-6.632v6.627h-1.94v-6.33c0-2.163-.992-3.098-2.534-3.098-1.541 0-2.534.954-2.534 3.135v6.293h-1.94V40.646h1.94v2.164c.476-1.252 1.505-2.384 3.33-2.384 2.397 0 3.683 1.847 3.683 4.226l-.005.005zm7.98 5.16v1.467h-1.386c-1.844 0-3.289-.894-3.289-2.92v-6.251h-2.237v-1.467h2.237v-2.52h1.939v2.52h2.695v1.467h-2.695v6.251c0 1.133.577 1.449 1.547 1.449h1.189v.004zm10.83-3.272h-8.024c.16 2.3 1.327 3.534 3.088 3.534 1.546 0 2.356-.715 2.754-1.907h1.981c-.613 2.264-2.338 3.337-4.735 3.337-3.207 0-5.05-2.342-5.05-5.537s1.88-5.537 5.032-5.537c2.973 0 4.991 2.104 4.991 5.381 0 .197-.019.477-.042.733l.005-.004zm-8.001-1.467h6.061c-.119-1.906-1.267-3.217-3.01-3.217-1.743 0-2.813 1.09-3.051 3.217zm10.218 6.211V36.205h1.94v15.084h-1.94zm4.69 0V36.205h1.94v15.084h-1.94zm4.625-12.467V36.2h2.1v2.622h-2.1zm.078 12.467V40.65h1.94v10.638h-1.94zm12.369-10.643h1.939v10.68c0 2.837-2.378 4.07-4.853 4.07-2.475 0-4.575-1.21-4.813-3.534h1.981c.179 1.388 1.405 2.103 2.832 2.103 1.624 0 2.914-.852 2.914-2.598v-2.622c-.654 1.508-2.159 2.48-3.742 2.48-2.576 0-4.515-2.123-4.515-5.4s1.962-5.399 4.515-5.399c1.981 0 3.248 1.311 3.742 2.741v-2.52zm.078 5.18c0-2.503-1.167-3.97-3.189-3.97-2.022 0-3.17 1.467-3.17 3.97 0 2.502 1.148 3.969 3.17 3.969 2.022 0 3.189-1.467 3.189-3.97zm13.831.719h-8.024c.16 2.301 1.327 3.534 3.088 3.534 1.546 0 2.356-.715 2.754-1.907h1.98c-.613 2.264-2.337 3.337-4.734 3.337-3.207 0-5.051-2.342-5.051-5.537 0-3.194 1.881-5.537 5.032-5.537 2.974 0 4.991 2.104 4.991 5.381 0 .197-.018.477-.041.734l.005-.005zm-8.001-1.467h6.061c-.119-1.906-1.267-3.217-3.01-3.217-1.743 0-2.813 1.09-3.051 3.218zm18.974-.421v6.627h-1.94v-6.33c0-2.163-.992-3.098-2.534-3.098-1.542 0-2.534.954-2.534 3.135v6.293h-1.94V40.646h1.94v2.164c.476-1.252 1.505-2.384 3.33-2.384 2.397 0 3.683 1.847 3.683 4.226l-.005.005zm1.857 1.31c0-3.295 2.022-5.536 5.169-5.536 2.617 0 4.337 1.586 4.794 3.831h-1.981c-.297-1.31-1.207-2.401-2.813-2.401-2.022 0-3.188 1.608-3.188 4.106 0 2.498 1.171 4.107 3.188 4.107 1.546 0 2.498-.834 2.932-2.342h1.981c-.553 2.443-2.498 3.772-4.913 3.772-3.147 0-5.169-2.241-5.169-5.537zm21.255.578h-8.024c.16 2.301 1.327 3.534 3.088 3.534 1.546 0 2.356-.715 2.754-1.907h1.98c-.613 2.264-2.337 3.337-4.734 3.337-3.207 0-5.051-2.342-5.051-5.537 0-3.194 1.881-5.537 5.032-5.537 2.974 0 4.991 2.104 4.991 5.381 0 .197-.018.477-.041.734l.005-.005zm-8.001-1.467h6.061c-.119-1.906-1.267-3.217-3.01-3.217-1.743 0-2.813 1.09-3.051 3.218z"
            fill="#425052"></path>
        <path
            d="M42.717 13.013h-6.258l-8.56 29.916h6.259l8.559-29.916zM27.74 42.93l-8.56-29.916h-6.257l8.559 29.916h6.258zM46.495.469H9.14C4.295.469.37 4.4.37 9.255v37.432c0 4.85 3.925 8.782 8.77 8.782H46.5c4.844 0 8.77-3.933 8.77-8.787V9.255c0-4.854-3.926-8.786-8.77-8.786h-.005zm4.593 50.82H4.547V4.653h46.546V51.29h-.005z"
            fill="#FA614C"></path>
    </g>
    <defs>
        <clipPath id="clip0_3616_7824">
            <path fill="#fff" transform="translate(.37 .469)" d="M0 0h232.222v55H0z"></path>
        </clipPath>
    </defs>
</svg>