<?xml version="1.0" encoding="UTF-8"?>
<svg xmlns="http://www.w3.org/2000/svg" viewBox="0 0 205 56" fill="none">
    <g clip-path="url(#clip0_3616_7949)">
        <path
            d="M70.28 51.289V36.205h2V51.29h-2zm13.965-6.632v6.627h-1.939v-6.33c0-2.163-.992-3.098-2.534-3.098-1.541 0-2.534.954-2.534 3.135v6.293h-1.94V40.646h1.94v2.164c.476-1.252 1.505-2.384 3.33-2.384 2.397 0 3.682 1.847 3.682 4.226l-.005.005zM94.404 36.2h1.94v15.084h-1.94V48.96c-.654 1.527-2.158 2.54-3.741 2.54-2.575 0-4.515-2.265-4.515-5.537 0-3.273 1.963-5.537 4.515-5.537 1.98 0 3.247 1.37 3.741 2.8V36.2zm.078 9.767c0-2.502-1.166-4.106-3.188-4.106-2.022 0-3.17 1.609-3.17 4.107 0 2.497 1.148 4.106 3.17 4.106 2.022 0 3.188-1.609 3.188-4.106zm11.466-5.321h1.94v10.638h-1.94v-2.122c-.457 1.21-1.505 2.342-3.265 2.342-2.397 0-3.646-1.847-3.646-4.226v-6.627h1.939v6.33c0 2.144.952 3.098 2.498 3.098 1.546 0 2.474-.972 2.474-3.135v-6.298zm3.992 7.526h1.981c.297 1.508 1.445 1.907 2.515 1.907 1.665 0 2.516-.637 2.516-1.609s-.554-1.407-2.141-1.746l-1.486-.316c-1.843-.4-3.11-1.233-3.11-2.86 0-1.884 1.861-3.117 4.18-3.117 2.058 0 3.824.953 4.3 2.878h-1.981c-.297-.935-1.285-1.448-2.319-1.448-1.148 0-2.259.536-2.259 1.49 0 .852.695 1.15 2.117 1.448l1.487.316c2.218.477 3.128 1.467 3.128 3.117 0 2.044-1.82 3.277-4.436 3.277-2.356 0-4.199-1.15-4.496-3.337h.004zm16.601 1.646v1.466h-1.386c-1.843 0-3.288-.893-3.288-2.92v-6.251h-2.237v-1.467h2.237v-2.52h1.939v2.52h2.694v1.467h-2.694v6.252c0 1.132.576 1.448 1.546 1.448h1.189v.005zm3.824-6.889c.476-1.49 1.523-2.503 3.485-2.503v1.925h-.594c-1.94 0-2.891.614-2.891 2.521v6.412h-1.939V40.646h1.939v2.283zm5.034-4.107V36.2h2.1v2.622h-2.1zm.078 12.467V40.65h1.94v10.638h-1.94zm13.289-6.848v6.848h-1.94v-2.182c-.731 1.49-1.605 2.402-3.663 2.402-2.059 0-3.563-1.449-3.563-3.415 0-2.48 2.474-2.956 4.377-3.158l2.854-.298v-.22c0-1.388-.773-2.562-2.456-2.562-1.487 0-2.319.912-2.456 1.925h-1.981c.238-2.003 1.939-3.355 4.437-3.355 3.229 0 4.395 2.026 4.395 4.01l-.004.005zm-1.94 2.324v-.793l-2.117.22c-1.464.16-3.129.358-3.129 1.907 0 1.37 1.07 2.122 2.296 2.122 1.962 0 2.95-1.55 2.95-3.456zm4.644 4.524V36.205h1.939V51.29h-1.939zm10.316 0V36.205h1.999V51.29h-1.999zm4.856-5.321c0-3.296 2.021-5.537 5.168-5.537 3.147 0 5.15 2.241 5.15 5.537 0 3.295-1.998 5.536-5.15 5.536-3.151 0-5.168-2.241-5.168-5.536zm8.338 0c0-2.503-1.148-4.107-3.17-4.107-2.022 0-3.188 1.609-3.188 4.107 0 2.497 1.166 4.106 3.188 4.106 2.022 0 3.17-1.608 3.17-4.106zm12.774-9.768v1.788h-5.013v13.296h-1.998V37.988h-5.014V36.2h12.025z"
            fill="#425052"></path>
        <path
            d="M86.45 11.487c0 4.492-3.33 6.93-7.3 6.93h-4.866v8.053h-4.099V4.59h8.965c3.97 0 7.3 2.405 7.3 6.897zm-7.94 3.048c2.273 0 3.778-1.09 3.778-3.048 0-1.957-1.505-3.016-3.746-3.016h-4.258v6.064h4.226zm29.425.995c0 6.127-4.611 10.94-11.27 10.94H89.46V4.59h7.204c6.659 0 11.27 4.812 11.27 10.94zm-11.046 7.058c4.034 0 6.852-3.144 6.852-7.059 0-3.914-2.818-7.026-6.852-7.026h-3.33v14.053l3.33.032zm14.529-16.074c0-1.38 1.153-2.502 2.561-2.502a2.51 2.51 0 012.53 2.502c0 1.38-1.153 2.47-2.53 2.47-1.376 0-2.561-1.09-2.561-2.47zm.544 19.956V11.39h4.034v15.08h-4.034zm22.82-21.817h2.946V26.47h-2.594l-.256-2.278c-1.088 1.7-3.009 2.599-5.155 2.599-3.778 0-7.203-2.856-7.203-7.829 0-4.972 3.425-7.828 7.203-7.828 2.082 0 3.971.834 5.059 2.438V4.653zm.096 14.31c0-3.177-2.241-5.134-4.738-5.134-2.498 0-4.675 1.861-4.675 5.133 0 3.273 2.145 5.134 4.675 5.134 2.529 0 4.738-1.957 4.738-5.134zm6.27-12.288c0-1.091.865-1.925 1.921-1.925 1.057 0 1.922.834 1.922 1.925 0 1.09-.865 1.892-1.922 1.892-1.056 0-1.921-.834-1.921-1.892zm.449 19.795V11.455h2.945V26.47h-2.945zm18.443-15.015h2.593v14.501c0 5.102-3.81 7.123-7.236 7.123-4.194 0-6.98-1.957-7.588-5.486h3.106c.448 1.797 2.177 2.791 4.482 2.791 2.306 0 4.291-1.348 4.291-4.428v-1.764c-1.153 1.636-3.106 2.47-5.123 2.47-3.81 0-7.268-2.823-7.268-7.764 0-4.94 3.458-7.764 7.268-7.764 2.049 0 4.098.898 5.219 2.599l.256-2.278zm-.256 7.443c0-3.144-2.306-5.069-4.739-5.069s-4.803 1.829-4.803 5.07c0 3.24 2.306 5.068 4.803 5.068s4.739-1.925 4.739-5.069zm5.987-12.223c0-1.091.865-1.925 1.922-1.925 1.056 0 1.921.834 1.921 1.925 0 1.09-.865 1.893-1.921 1.893-1.057 0-1.922-.834-1.922-1.893zm.449 19.795V11.455h2.945V26.47h-2.945zm14.983-12.512h-4.354v7.315c0 2.117.992 2.727 3.01 2.727.192 0 .448 0 1.12-.032v2.47a8.23 8.23 0 01-1.921.225c-2.913 0-5.155-1.83-5.155-5.038l-.032-7.667h-2.657v-2.503h2.657V6.418h2.978v5.037h4.354v2.503zm14.057-2.503h2.593V26.47h-2.593l-.257-2.31c-1.12 1.733-3.169 2.63-5.218 2.63-3.811 0-7.268-2.854-7.268-7.827s3.457-7.829 7.268-7.829c2.049 0 4.098.899 5.218 2.631l.257-2.31zm-.257 7.508c0-3.177-2.305-5.134-4.738-5.134-2.434 0-4.803 1.861-4.803 5.134 0 3.272 2.305 5.133 4.803 5.133 2.497 0 4.738-1.957 4.738-5.133zm6.532 7.507V4.653h2.946V26.47h-2.946z"
            fill="#0D2126"></path>
        <path
            d="M27.736 42.924l-8.558-29.91h-6.257l8.558 29.915h6.257v-.005zm14.975-29.91h-6.257l-8.558 29.915h6.257l8.558-29.916zM46.489.468H9.139C4.294.469.37 4.4.37 9.255v37.432c0 4.85 3.925 8.782 8.768 8.782h37.355c4.844 0 8.769-3.933 8.769-8.787V9.255c0-4.854-3.925-8.786-8.769-8.786h-.004zm4.592 50.82H4.541V4.653h46.54V51.29z"
            fill="#0ED0A0"></path>
    </g>
    <defs>
        <clipPath id="clip0_3616_7949">
            <path fill="#fff" transform="translate(.37 .469)" d="M0 0h204.111v55H0z"></path>
        </clipPath>
    </defs>
</svg>