<svg viewBox="0 0 301 56" fill="none" xmlns="http://www.w3.org/2000/svg">
    <g clip-path="url(#clip0_3616_7697)">
        <path
            d="M65.98 20.407h4.07c.215 1.992 1.572 3.455 3.915 3.455 1.85 0 3.299-1.027 3.299-2.49 0-4.389-10.945-2.023-10.945-9.68 0-3.393 2.744-6.133 7.153-6.133 4.933 0 7.276 3.487 7.399 6.662h-4.07c-.123-1.681-1.295-3.113-3.33-3.113-2.034 0-3.206 1.12-3.206 2.583 0 4.14 10.945 1.712 10.945 9.681 0 3.611-3.515 6.07-7.245 6.07-5.58 0-7.893-3.984-7.986-7.035zM97.615 9.575H87.75v4.98h8.757v3.673H87.75v5.167h9.866V27.1h-13.72V5.866h13.72v3.709zm2.032 10.832h4.07c.216 1.992 1.573 3.455 3.916 3.455 1.85 0 3.299-1.027 3.299-2.49 0-4.389-10.945-2.023-10.945-9.68 0-3.393 2.744-6.133 7.152-6.133 4.933 0 7.277 3.487 7.4 6.662h-4.07c-.123-1.681-1.295-3.113-3.33-3.113-2.034 0-3.206 1.12-3.206 2.583 0 4.14 10.945 1.712 10.945 9.681 0 3.611-3.515 6.07-7.245 6.07-5.581 0-7.893-3.984-7.986-7.035zm19.547-12.513c0-1.059.833-1.868 1.85-1.868 1.018 0 1.85.81 1.85 1.868s-.832 1.836-1.85 1.836a1.838 1.838 0 01-1.85-1.836zm.432 19.206V12.532h2.836V27.1h-2.836zm6.261 0v-8.623c0-3.642 2.312-6.256 5.919-6.256 2.898 0 4.44 1.96 4.656 2.645h.062c.215-.684 1.757-2.645 4.655-2.645 3.607 0 5.92 2.614 5.92 6.256V27.1h-2.837v-8.405c0-2.366-1.048-3.797-3.175-3.797-2.128 0-3.176 1.431-3.176 3.86v8.373h-2.837v-8.374c0-2.428-1.048-3.86-3.175-3.86-2.128 0-3.176 1.432-3.176 3.798V27.1h-2.836zm35.639-14.568h2.497V27.1h-2.497l-.247-2.242c-1.079 1.681-3.052 2.553-5.025 2.553-3.669 0-6.999-2.77-6.999-7.595 0-4.825 3.33-7.595 6.999-7.595 1.973 0 3.946.871 5.025 2.552l.247-2.241zm-.247 7.284c0-3.082-2.22-4.98-4.563-4.98-2.343 0-4.625 1.805-4.625 4.98 0 3.175 2.22 4.98 4.625 4.98s4.563-1.899 4.563-4.98zm17.511-7.284h2.498v14.07c0 4.949-3.669 6.91-6.968 6.91-4.039 0-6.721-1.899-7.307-5.323h2.99c.432 1.743 2.097 2.708 4.317 2.708s4.131-1.307 4.131-4.295V24.89c-1.11 1.587-2.99 2.396-4.933 2.396-3.669 0-6.998-2.739-6.998-7.532 0-4.794 3.329-7.533 6.998-7.533 1.973 0 3.947.871 5.026 2.521l.246-2.21zm-.246 7.222c0-3.05-2.22-4.919-4.563-4.919-2.343 0-4.625 1.775-4.625 4.919 0 3.143 2.22 4.918 4.625 4.918s4.563-1.868 4.563-4.918zm4.779.062c0-4.265 3.207-7.595 7.461-7.595 4.255 0 7.462 3.33 7.462 7.595 0 4.264-3.207 7.595-7.462 7.595-4.254 0-7.461-3.33-7.461-7.595zm12.086 0c0-2.895-1.973-4.98-4.625-4.98-2.651 0-4.624 2.085-4.624 4.98 0 2.895 1.973 4.98 4.624 4.98 2.652 0 4.625-2.085 4.625-4.98zm13.01-4.856h-4.193v7.097c0 2.054.956 2.646 2.898 2.646.185 0 .432 0 1.079-.031v2.397a7.867 7.867 0 01-1.85.218c-2.805 0-4.963-1.775-4.963-4.888l-.031-7.44H198.8v-2.427h2.559V7.645h2.867v4.887h4.193v2.428zm13.381-2.428h2.497V27.1H221.8l-.247-2.242c-1.079 1.681-3.052 2.553-5.025 2.553-3.669 0-6.999-2.77-6.999-7.595 0-4.825 3.33-7.595 6.999-7.595 1.973 0 3.946.871 5.025 2.552l.247-2.241zm-.247 7.284c0-3.082-2.219-4.98-4.563-4.98-2.343 0-4.624 1.805-4.624 4.98 0 3.175 2.22 4.98 4.624 4.98 2.405 0 4.563-1.899 4.563-4.98zm17.515-7.284h2.497v14.07c0 4.949-3.669 6.91-6.968 6.91-4.039 0-6.721-1.899-7.307-5.323h2.991c.431 1.743 2.096 2.708 4.316 2.708 2.22 0 4.132-1.307 4.132-4.295V24.89c-1.11 1.587-2.991 2.396-4.933 2.396-3.669 0-6.999-2.739-6.999-7.532 0-4.794 3.33-7.533 6.999-7.533 1.973 0 3.946.871 5.025 2.521l.247-2.21zm-.247 7.222c0-3.05-2.22-4.919-4.563-4.919-2.343 0-4.625 1.775-4.625 4.919 0 3.143 2.22 4.918 4.625 4.918s4.563-1.868 4.563-4.918z"
            fill="#0D2126"></path>
        <path
            d="M68.79 49.445h7.685v1.734H66.86V36.545h9.444v1.734H68.79v4.487h7.381V44.5H68.79v4.95-.005zm9.904 1.735V36.544h1.868v14.634h-1.868zm13.602-4.603h-7.725c.154 2.232 1.277 3.428 2.977 3.428 1.489 0 2.268-.694 2.652-1.85h1.907c-.59 2.197-2.251 3.237-4.559 3.237-3.092 0-4.862-2.272-4.862-5.371 0-3.1 1.81-5.372 4.844-5.372 2.863 0 4.806 2.041 4.806 5.22 0 .192-.018.463-.04.712v-.004zm-7.708-1.423h5.836c-.114-1.85-1.22-3.122-2.898-3.122-1.678 0-2.709 1.058-2.938 3.122zm9.222.862c0-3.197 1.947-5.371 4.978-5.371 2.515 0 4.175 1.538 4.615 3.717h-1.907c-.286-1.272-1.162-2.33-2.708-2.33-1.947 0-3.07 1.56-3.07 3.984s1.123 3.985 3.07 3.985c1.488 0 2.404-.81 2.823-2.273h1.907c-.533 2.37-2.405 3.66-4.73 3.66-3.035 0-4.977-2.174-4.977-5.372zm17.024 3.736v1.423h-1.335c-1.775 0-3.167-.867-3.167-2.833v-6.065h-2.153v-1.423h2.153v-2.446h1.868v2.446h2.594v1.423H108.2v6.065c0 1.098.555 1.405 1.489 1.405h1.145v.005zm3.484-6.684c.458-1.445 1.466-2.428 3.356-2.428v1.868h-.573c-1.867 0-2.783.596-2.783 2.445v6.222h-1.868V40.854h1.868v2.214zm4.157 2.948c0-3.197 1.946-5.371 4.977-5.371 3.03 0 4.959 2.174 4.959 5.371 0 3.198-1.925 5.372-4.959 5.372-3.035 0-4.977-2.174-4.977-5.372zm8.029 0c0-2.428-1.106-3.984-3.052-3.984-1.947 0-3.07 1.56-3.07 3.984s1.123 3.985 3.07 3.985c1.946 0 3.052-1.561 3.052-3.985zm12.612-1.271v6.43h-1.867v-6.141c0-2.1-.956-3.006-2.44-3.006-1.485 0-2.441.925-2.441 3.041v6.106h-1.867V40.854h1.867v2.099c.459-1.215 1.45-2.313 3.207-2.313 2.308 0 3.546 1.792 3.546 4.1l-.005.005zm2.497-5.661V36.54h2.022v2.544h-2.022zm.075 12.095V40.858h1.868v10.321h-1.868zm3.934-5.163c0-3.197 1.947-5.371 4.977-5.371 2.515 0 4.176 1.538 4.616 3.717h-1.907c-.286-1.272-1.163-2.33-2.709-2.33-1.947 0-3.07 1.56-3.07 3.984s1.123 3.985 3.07 3.985c1.489 0 2.405-.81 2.823-2.273h1.908c-.533 2.37-2.405 3.66-4.731 3.66-3.035 0-4.977-2.174-4.977-5.372zm15.83.752h2.004c.268 1.983 1.775 2.984 3.717 2.984 2.555 0 3.946-1.076 3.946-2.602 0-1.596-1.162-1.983-3.492-2.503l-1.81-.405c-2.269-.502-3.912-1.654-3.912-3.85 0-2.331 2.308-4.065 5.228-4.065 2.921 0 5.132 1.618 5.55 4.024h-2.004c-.458-1.676-1.793-2.388-3.546-2.388s-3.281.885-3.281 2.233c0 1.347.934 1.85 3.167 2.347l1.81.405c2.916.654 4.233 1.694 4.233 3.984 0 2.62-2.348 4.447-5.893 4.447-3.07 0-5.286-1.752-5.722-4.62l.005.009zm22.356-2.023v6.43h-1.867v-6.141c0-2.1-.956-3.006-2.44-3.006s-2.44.925-2.44 3.041v6.106h-1.868V36.54h1.868v6.413c.458-1.215 1.449-2.313 3.202-2.313 2.308 0 3.545 1.792 3.545 4.1v.005zm11.604 1.832h-7.725c.154 2.232 1.277 3.428 2.977 3.428 1.489 0 2.269-.693 2.652-1.85h1.907c-.59 2.197-2.251 3.238-4.559 3.238-3.092 0-4.862-2.273-4.862-5.372 0-3.1 1.81-5.372 4.845-5.372 2.863 0 4.805 2.041 4.805 5.22 0 .192-.018.463-.04.712v-.004zm-7.708-1.423h5.836c-.114-1.85-1.22-3.122-2.898-3.122-1.678 0-2.708 1.059-2.938 3.122zm9.844 6.026V36.544h1.867v14.634h-1.867zm8.856-13.212c-.933 0-1.488.307-1.488 1.445v1.445h2.634v1.423h-2.634v8.898h-1.868v-8.898h-2.118v-1.423h2.118v-1.445c0-1.983 1.374-2.868 3.167-2.868h1.335v1.423h-1.146zm9.9 11.477h6.637v1.734h-8.562V36.545h1.925v12.9zm16.717-4.909v6.643h-1.868v-2.117c-.704 1.446-1.546 2.33-3.528 2.33s-3.431-1.405-3.431-3.312c0-2.406 2.383-2.868 4.215-3.064l2.749-.29v-.213c0-1.347-.745-2.485-2.365-2.485-1.432 0-2.233.885-2.366 1.867h-1.907c.229-1.943 1.868-3.255 4.273-3.255 3.109 0 4.232 1.966 4.232 3.891l-.004.005zm-1.868 2.254v-.77l-2.039.214c-1.409.156-3.013.347-3.013 1.85 0 1.33 1.031 2.06 2.212 2.06 1.889 0 2.84-1.504 2.84-3.354zm14.28-.773c0 3.179-1.867 5.371-4.347 5.371-1.524 0-2.977-.982-3.607-2.463v2.254h-1.868V36.545h1.868v6.817c.476-1.388 1.696-2.717 3.607-2.717 2.462 0 4.347 2.197 4.347 5.371zm-1.907 0c0-2.428-1.105-3.985-3.052-3.985s-3.07 1.561-3.07 3.985c0 2.423 1.128 3.984 3.07 3.984s3.052-1.561 3.052-3.984zm13.079.56h-7.725c.154 2.232 1.277 3.428 2.973 3.428 1.488 0 2.268-.694 2.651-1.85h1.907c-.59 2.197-2.25 3.237-4.558 3.237-3.088 0-4.863-2.272-4.863-5.371 0-3.1 1.81-5.372 4.845-5.372 2.863 0 4.805 2.041 4.805 5.22 0 .192-.017.463-.039.712l.004-.004zm-7.703-1.423h5.836c-.115-1.85-1.22-3.122-2.898-3.122-1.679 0-2.709 1.058-2.938 3.122zm9.84 6.026V36.544h1.868v14.634h-1.868zm3.815-3.025h1.907c.287 1.463 1.392 1.85 2.423 1.85 1.603 0 2.422-.618 2.422-1.56 0-.944-.533-1.366-2.061-1.695l-1.432-.307c-1.775-.387-2.995-1.196-2.995-2.775 0-1.827 1.793-3.023 4.026-3.023 1.982 0 3.682.924 4.14 2.792h-1.907c-.286-.907-1.242-1.405-2.233-1.405-1.105 0-2.176.52-2.176 1.445 0 .827.67 1.116 2.04 1.405l1.431.307c2.136.463 3.013 1.423 3.013 3.024 0 1.983-1.753 3.18-4.273 3.18-2.268 0-4.043-1.117-4.329-3.238h.004z"
            fill="#425052"></path>
        <path
            d="M26.97 43.225l-8.575-29.913h-6.27L20.7 43.225h6.27zm15.004-29.913h-6.27L27.13 43.225h6.27l8.574-29.913zM45.764.77H8.335A8.784 8.784 0 00-.45 9.554v37.43a8.784 8.784 0 008.785 8.785h37.43a8.784 8.784 0 008.785-8.786V9.56A8.784 8.784 0 0045.764.773V.77zm4.602 50.815H3.734V4.957h46.632V51.59v-.005z"
            fill="#9C65FC"></path>
    </g>
    <defs>
        <clipPath id="clip0_3616_7697">
            <path fill="#fff" transform="translate(.37 .469)" d="M0 0h300.385v55H0z"></path>
        </clipPath>
    </defs>
</svg>