<svg viewBox="0 0 180 40" fill="none" xmlns="http://www.w3.org/2000/svg">
    <path
        d="M30.854 9.123h-4.56l-6.236 21.754h4.56l6.236-21.754zM33.611 0H6.389A6.389 6.389 0 000 6.39v27.22C0 37.14 2.86 40 6.39 40h27.22c3.53 0 6.39-2.86 6.39-6.39V6.39C40 2.86 37.14 0 33.61 0zm3.346 36.957H3.043V3.043h33.914v33.914zm-17.012-6.08L13.709 9.123h-4.56l6.236 21.754h4.56z"
        fill="#0FD0F2"></path>
    <path
        d="M51.013 36.957v-10.97h1.456v10.97h-1.456zm3.536-3.87c0-2.396 1.473-4.026 3.766-4.026s3.753 1.63 3.753 4.026c0 2.397-1.456 4.027-3.753 4.027-2.296 0-3.766-1.63-3.766-4.027zm6.076 0c0-1.82-.837-2.986-2.31-2.986s-2.323 1.17-2.323 2.986c0 1.817.853 2.987 2.323 2.987s2.31-1.17 2.31-2.987zm9.309-7.099v1.3h-3.653v9.669h-1.46v-9.67h-3.653v-1.3h8.766zm9.279 0c2.597 0 4.17 1.226 4.17 3.436s-1.573 3.437-4.17 3.437H76.63v4.1h-1.46V25.99h4.043v-.003zm.044 5.573c1.69 0 2.613-.694 2.613-2.137s-.923-2.136-2.613-2.136H76.63v4.273h2.627zm5.443 5.396v-10.97h1.413v10.97H84.7zm9.695-4.98v4.98h-1.413V35.37c-.533 1.084-1.17 1.747-2.67 1.747s-2.596-1.053-2.596-2.483c0-1.803 1.803-2.15 3.19-2.297l2.08-.216v-.16c0-1.01-.564-1.863-1.79-1.863-1.084 0-1.69.663-1.79 1.4h-1.443c.173-1.457 1.413-2.44 3.233-2.44 2.353 0 3.203 1.473 3.203 2.916l-.004.003zm-1.413 1.69v-.576l-1.543.16c-1.066.116-2.28.26-2.28 1.386 0 .997.78 1.543 1.673 1.543 1.43 0 2.15-1.126 2.15-2.513zm12.153-6.613c-.707 0-1.127.23-1.127 1.084v1.083h1.993v1.067h-1.993v6.669h-1.413v-6.67h-4.2v4.547c0 .823.42 1.053 1.127 1.053h.866v1.067h-1.01c-1.343 0-2.396-.65-2.396-2.124v-4.546h-1.63v-1.066h1.63v-1.834h1.413v1.834h4.2v-1.084c0-1.486 1.04-2.15 2.396-2.15h1.01v1.067h-.866v.003zm1.429 6.033c0-2.396 1.474-4.026 3.767-4.026s3.753 1.63 3.753 4.026c0 2.397-1.457 4.027-3.753 4.027-2.297 0-3.767-1.63-3.767-4.027zm6.077 0c0-1.82-.837-2.986-2.31-2.986s-2.323 1.17-2.323 2.986c0 1.817.853 2.987 2.323 2.987s2.31-1.17 2.31-2.987zm4.433-2.207c.346-1.082 1.11-1.82 2.539-1.82v1.4h-.433c-1.413 0-2.106.447-2.106 1.834v4.663h-1.414V29.22h1.414v1.66zm14.898 1.254v4.82h-1.413V32.35c0-1.56-.606-2.253-1.733-2.253-1.127 0-1.733.693-1.733 2.28v4.576h-1.413V32.35c0-1.56-.607-2.253-1.734-2.253-1.126 0-1.733.693-1.733 2.28v4.576H120.8v-7.736h1.413v1.573c.347-.924 1.04-1.733 2.31-1.733s2.15.936 2.427 1.933c.316-.937 1.066-1.933 2.453-1.933 1.69 0 2.569 1.283 2.569 3.073v.003z"
        fill="#425052"></path>
    <path
        d="M66.177 14.179v-6.23h2.964v6.02c0 1.586.7 2.566 2.1 2.59 1.493.023 2.146-.957 2.146-2.59v-6.02h2.963v6.253c0 2.8-2.076 4.993-5.11 4.97-3.243-.024-5.063-2.1-5.063-4.993zm11.713 1.446h2.613c.14.84 1.013 1.237 1.83 1.237.816 0 1.433-.397 1.433-.933 0-1.774-5.6-.677-5.6-4.923 0-1.82 1.517-3.29 3.99-3.29 2.403-.023 4.036 1.26 4.2 3.406h-2.613c-.117-.653-.71-1.096-1.503-1.096-.794 0-1.34.42-1.34.98 0 1.703 5.67.723 5.67 4.923 0 1.96-1.914 3.243-4.154 3.243-2.543 0-4.363-1.47-4.526-3.547zm15.212-2.193c0-3.243 2.45-5.716 5.856-5.716 3.407 0 5.856 2.473 5.856 5.716 0 3.243-2.449 5.74-5.856 5.74-3.406 0-5.856-2.497-5.856-5.74zm8.796 0c0-1.843-1.237-3.15-2.94-3.15-1.703 0-2.94 1.307-2.94 3.15s1.237 3.15 2.94 3.15c1.703 0 2.94-1.283 2.94-3.15zm4.383 5.48v-6.23c0-2.893 1.843-4.97 5.133-4.97 3.289 0 5.109 2.077 5.109 4.97v6.23h-2.94v-5.996c0-1.61-.723-2.614-2.169-2.614-1.447 0-2.17 1.004-2.17 2.614v5.996h-2.963zM66.15 3l-4.562 15.912H58.25L62.815 3h3.337zM54.835 18.912L50.272 3h3.337l4.563 15.912h-3.337zM88.04 4.403c0-1.003.839-1.82 1.866-1.82 1.026 0 1.843.817 1.843 1.82 0 1.003-.84 1.796-1.843 1.796-1.004 0-1.867-.793-1.867-1.796zm.396 14.509V7.949h2.94v10.963h-2.94zm32.71-7.936c0-4.597 3.43-8.166 7.98-8.166 3.429 0 6.322 2.123 7.162 5.226h-2.309c-.794-1.913-2.66-3.173-4.853-3.173-3.29 0-5.74 2.66-5.74 6.113 0 3.453 2.45 6.113 5.74 6.113 2.193 0 4.059-1.26 4.853-3.173h2.309c-.84 3.103-3.733 5.226-7.162 5.226-4.55 0-7.98-3.57-7.98-8.166zm17.802 7.936V3.046h2.146v15.866h-2.146zm4.573-5.463c0-3.197 2.426-5.693 5.646-5.693 3.22 0 5.646 2.496 5.646 5.693 0 3.196-2.426 5.693-5.646 5.693-3.22 0-5.646-2.497-5.646-5.693zm9.146 0c0-2.17-1.493-3.733-3.5-3.733-2.006 0-3.5 1.563-3.5 3.733s1.494 3.733 3.5 3.733c2.007 0 3.5-1.563 3.5-3.733zm4.13 1.003V7.99h2.146v6.3c0 1.773.817 2.846 2.497 2.846 1.679 0 2.496-1.073 2.496-2.846v-6.3h2.147v6.463c0 2.73-1.774 4.69-4.643 4.69-2.87 0-4.643-1.96-4.643-4.69zm20.205-11.409h2.146v15.865h-1.89l-.186-1.656c-.794 1.236-2.194 1.89-3.757 1.89-2.753 0-5.249-2.077-5.249-5.693 0-3.617 2.496-5.693 5.249-5.693 1.517 0 2.893.607 3.687 1.773V3.043zm.07 10.406c0-2.31-1.634-3.733-3.453-3.733-1.82 0-3.407 1.353-3.407 3.733s1.563 3.733 3.407 3.733c1.843 0 3.453-1.423 3.453-3.733z"
        fill="#0D2126"></path>
</svg>